<svg width="2000" height="2000" viewBox="0 0 2000 2000" fill="none" xmlns="http://www.w3.org/2000/svg">
<path d="M1124.97 125C893.114 125.678 670.948 218.083 507.001 382.031C343.053 545.978 250.648 768.144 249.97 1000L1358.53 1233.56L1124.97 125Z" fill="#ED6C47"/>
<path d="M1125.61 125C1357.4 125.703 1579.49 218.135 1743.33 382.096C1907.17 546.056 1999.45 768.209 1999.99 1000L1562.49 1297.37L1125.61 1000V125Z" fill="#FF8F6B"/>
<path d="M1124.97 1875C1356.83 1874.32 1578.99 1781.92 1742.94 1617.97C1906.89 1454.02 1999.29 1231.86 1999.97 1000H249.97C250.648 1231.86 343.053 1454.02 507.001 1617.97C670.948 1781.92 893.114 1874.32 1124.97 1875V1875Z" fill="#D35230"/>
<path opacity="0.1" d="M1041.65 437.5H456.563C313.695 605.838 240.209 822.217 251.012 1042.74C261.815 1263.27 356.097 1471.43 514.733 1625H1041.65C1063.73 1624.93 1084.89 1616.13 1100.5 1600.52C1116.12 1584.91 1124.92 1563.75 1124.98 1541.66V520.832C1124.92 498.75 1116.12 477.592 1100.5 461.978C1084.89 446.364 1063.73 437.564 1041.65 437.5V437.5Z" fill="black"/>
<path opacity="0.2" d="M979.15 500H408.669C279.841 682.802 226.435 908.229 259.559 1129.4C292.683 1350.57 409.787 1550.46 586.518 1687.5H979.15C1001.23 1687.43 1022.39 1678.63 1038 1663.02C1053.62 1647.41 1062.42 1626.25 1062.49 1604.16V583.332C1062.42 561.25 1053.62 540.092 1038 524.478C1022.39 508.864 1001.23 500.064 979.15 500V500Z" fill="black"/>
<path opacity="0.2" d="M979.146 500H408.665C297.696 657.339 242.18 847.104 250.851 1039.44C259.522 1231.78 331.887 1415.78 456.563 1562.5H979.146C1001.23 1562.43 1022.39 1553.63 1038 1538.02C1053.62 1522.41 1062.42 1501.25 1062.48 1479.16V583.332C1062.42 561.25 1053.62 540.092 1038 524.478C1022.39 508.864 1001.23 500.064 979.146 500Z" fill="black"/>
<path opacity="0.2" d="M916.646 500H408.665C297.696 657.339 242.18 847.104 250.851 1039.44C259.522 1231.78 331.887 1415.78 456.563 1562.5H916.646C938.728 1562.43 959.887 1553.63 975.501 1538.02C991.115 1522.41 999.917 1501.25 999.982 1479.16V583.332C999.916 561.25 991.115 540.092 975.501 524.478C959.886 508.864 938.727 500.064 916.646 500Z" fill="black"/>
<path d="M83.3325 500H916.667C938.769 500 959.965 508.78 975.593 524.408C991.22 540.036 1000 561.232 1000 583.334V1416.67C1000 1427.61 997.845 1438.45 993.657 1448.56C989.469 1458.67 983.331 1467.85 975.593 1475.59C967.855 1483.33 958.668 1489.47 948.558 1493.66C938.447 1497.84 927.611 1500 916.667 1500H83.3325C61.2313 1500 40.0353 1491.22 24.4075 1475.59C8.77967 1459.96 -2.48646e-09 1438.77 0 1416.67V583.333C-6.21281e-10 561.232 8.77965 540.036 24.4075 524.408C40.0354 508.78 61.2313 500 83.3325 500V500Z" fill="#C43E1C"/>
<path d="M502.178 687.507C563.654 683.371 624.604 701.183 674.178 737.774C694.512 755.921 710.451 778.457 720.787 803.674C731.124 828.892 735.589 856.131 733.842 883.329C734.523 918.623 724.212 953.255 704.338 982.429C684.095 1014.7 654.949 1040.44 620.414 1056.53C580.946 1074.84 537.811 1083.88 494.311 1082.96H374.982V1311.86H252.594V687.507H502.178ZM374.981 979.905H480.323C513.706 982.34 546.825 972.469 573.426 952.155C583.999 945.356 592.517 935.802 598.062 924.521C603.608 913.24 605.971 900.66 604.897 888.136C604.897 819.074 564.684 784.543 484.257 784.543H374.982L374.981 979.905Z" fill="#F9F7F7"/>
</svg>
